<?xml version="1.0" encoding="UTF-8" standalone="no"?>
<svg width="16px" height="16px" viewBox="0 0 16 16" version="1.1" xmlns="http://www.w3.org/2000/svg" xmlns:xlink="http://www.w3.org/1999/xlink" xmlns:sketch="http://www.bohemiancoding.com/sketch/ns">
    <!-- Generator: Sketch 3.4.2 (15857) - http://www.bohemiancoding.com/sketch -->
    <title>Thumbanils</title>
    <desc>Created with Sketch.</desc>
    <defs></defs>
    <g id="Big-Shots" stroke="none" stroke-width="1" fill="none" fill-rule="evenodd" sketch:type="MSPage">
        <g id="Desktop-Big-Shots-[detail-share]" sketch:type="MSArtboardGroup" transform="translate(-1095.000000, -32.000000)" fill="#FFFFFF">
            <g id="Desktop-Nav" sketch:type="MSLayerGroup" transform="translate(0.000000, -1.000000)">
                <g id="Items" transform="translate(1004.000000, 31.000000)" sketch:type="MSShapeGroup">
                    <g id="Thumbanils" transform="translate(91.000000, 2.000000)">
                        <path d="M0,0 L0,4 L4,4 L4,0 L0,0 Z M0,6 L0,10 L4,10 L4,6 L0,6 Z M0,12 L0,16 L4,16 L4,12 L0,12 Z M6,0 L6,4 L10,4 L10,0 L6,0 Z M6,6 L6,10 L10,10 L10,6 L6,6 Z M6,12 L6,16 L10,16 L10,12 L6,12 Z M12,0 L12,4 L16,4 L16,0 L12,0 Z M12,6 L12,10 L16,10 L16,6 L12,6 Z M12,12 L12,16 L16,16 L16,12 L12,12 Z" id="Rectangle"></path>
                    </g>
                </g>
            </g>
        </g>
    </g>
</svg>