<?xml version="1.0" encoding="UTF-8" standalone="no"?>
<svg width="383px" height="20px" viewBox="0 0 383 20" version="1.1" xmlns="http://www.w3.org/2000/svg" xmlns:xlink="http://www.w3.org/1999/xlink" xmlns:sketch="http://www.bohemiancoding.com/sketch/ns">
    <!-- Generator: Sketch 3.4.2 (15857) - http://www.bohemiancoding.com/sketch -->
    <title>IBT Logo</title>
    <desc>Created with Sketch.</desc>
    <defs></defs>
    <g id="Page-1" stroke="none" stroke-width="1" fill="none" fill-rule="evenodd" sketch:type="MSPage">
        <g id="Desktop-Standard-Article" sketch:type="MSArtboardGroup" transform="translate(-152.000000, -5736.000000)">
            <g id="Article" sketch:type="MSLayerGroup" transform="translate(148.000000, 298.000000)">
                <g id="IBT-Logo" transform="translate(4.000000, 5438.000000)" sketch:type="MSShapeGroup">
                    <path d="M374.624737,12.3303635 C374.679801,11.7797189 375.177476,11.3333333 375.72147,11.3333333 L381.72741,11.3333333 C382.278054,11.3333333 382.679136,11.7863696 382.624737,12.3303635 L382.024143,18.3363032 C381.969078,18.8869477 381.471403,19.3333333 380.92741,19.3333333 L374.92147,19.3333333 C374.370825,19.3333333 373.969743,18.880297 374.024143,18.3363032 L374.624737,12.3303635 Z" id="Rectangle" fill="#79CE00"></path>
                    <path d="M0.232258065,19.3548387 L9.47096774,19.3548387 L9.47096774,16.1806452 L8.56774194,16.1806452 C8.28387097,16.1806452 7.87096774,15.716129 7.87096774,15.4322581 L7.87096774,5.31612903 C7.87096774,5.03225806 8.28387097,4.59354839 8.56774194,4.59354839 L9.47096774,4.59354839 L9.47096774,1.29032258 L0.232258065,1.29032258 L0.232258065,4.59354839 L1.10967742,4.59354839 C1.41935484,4.59354839 1.83225806,5.03225806 1.83225806,5.31612903 L1.83225806,15.4322581 C1.83225806,15.716129 1.41935484,16.1806452 1.10967742,16.1806452 L0.232258065,16.1806452 L0.232258065,19.3548387 Z M10.1806452,19.3548387 L18.6193548,19.3548387 L18.6193548,16.1806452 L17.0967742,16.1806452 L17.0967742,9.75483871 C17.5096774,9.70322581 17.9225806,9.67741935 18.1548387,9.67741935 C19.316129,9.67741935 19.8064516,9.88387097 19.8064516,10.8903226 L19.8064516,19.3548387 L26.4903226,19.3548387 L26.4903226,16.1806452 L26.0774194,16.1806452 C25.8193548,16.1806452 25.4322581,15.7935484 25.4322581,15.5354839 L25.4322581,8.72258065 C25.4322581,6.21935484 23.7290323,5.47096774 21.9225806,5.47096774 C19.7806452,5.47096774 18.2064516,6.37419355 17.0193548,7.61290323 C16.8903226,6.11612903 16.5290323,5.72903226 16.0129032,5.72903226 L10.1032258,5.72903226 L10.1032258,9.10967742 L10.8258065,9.10967742 C11.083871,9.10967742 11.4709677,9.49677419 11.4709677,9.75483871 L11.4709677,15.5354839 C11.4709677,15.7677419 11.083871,16.1806452 10.8258065,16.1806452 L10.1806452,16.1806452 L10.1806452,19.3548387 Z M26.6322581,9.10967742 L27.9741935,9.10967742 L27.9741935,15.6129032 C27.9741935,18.7870968 29.9612903,19.6387097 32.9548387,19.6387097 C34.2451613,19.6387097 35.2774194,19.4322581 35.9483871,19.2516129 L35.9483871,16.1806452 L35.2516129,16.1806452 C34.0129032,16.1806452 33.6258065,15.8193548 33.6258065,14.6580645 L33.6258065,9.10967742 L35.8967742,9.10967742 L35.8967742,5.72903226 L33.6258065,5.72903226 L33.6258065,2.19354839 L27.9741935,2.19354839 L27.9741935,5.72903226 L26.6322581,5.72903226 L26.6322581,9.10967742 Z M50.6193548,13.7548387 C50.6193548,13.5741935 50.6709677,13.0580645 50.6709677,12.4129032 C50.6709677,7.63870968 48.5032258,5.47096774 43.883871,5.47096774 C39.316129,5.47096774 36.5032258,8.25806452 36.5032258,12.6193548 C36.5032258,16.9290323 38.6451613,19.5870968 43.9612903,19.5870968 C47.083871,19.5870968 48.8903226,19.0451613 50.1290323,18.3483871 L50.1290323,15.0709677 L47.1612903,15.0709677 C46.6451613,15.7419355 45.9483871,16.2322581 44.5548387,16.2322581 C43.0064516,16.2322581 42.3354839,15.483871 42.1548387,13.7548387 L50.6193548,13.7548387 Z M43.883871,8.69677419 C44.8645161,8.69677419 45.3032258,9.34193548 45.4322581,11.0967742 L42.1806452,11.0967742 C42.3612903,9.34193548 42.8774194,8.69677419 43.883871,8.69677419 L43.883871,8.69677419 Z M51.3806452,19.3548387 L59.716129,19.3548387 L59.716129,16.1806452 L58.2967742,16.1806452 L58.2967742,10.3225806 C59.0451613,10.116129 60.2322581,9.90967742 61.9870968,9.90967742 L62.5548387,9.90967742 L62.5548387,5.72903226 C62.1677419,5.6 61.9612903,5.57419355 61.7290323,5.57419355 C60,5.57419355 59.0709677,6.42580645 58.2193548,7.58709677 C58.0903226,6.11612903 57.7290323,5.72903226 57.2129032,5.72903226 L51.3032258,5.72903226 L51.3032258,9.10967742 L52.0258065,9.10967742 C52.283871,9.10967742 52.6709677,9.52258065 52.6709677,9.75483871 L52.6709677,15.5354839 C52.6709677,15.7935484 52.283871,16.1806452 52.0258065,16.1806452 L51.3806452,16.1806452 L51.3806452,19.3548387 Z M63.4193548,19.3548387 L71.8580645,19.3548387 L71.8580645,16.1806452 L70.3354839,16.1806452 L70.3354839,9.75483871 C70.7483871,9.70322581 71.1612903,9.67741935 71.3935484,9.67741935 C72.5548387,9.67741935 73.0451613,9.88387097 73.0451613,10.8903226 L73.0451613,19.3548387 L79.7290323,19.3548387 L79.7290323,16.1806452 L79.316129,16.1806452 C79.0580645,16.1806452 78.6709677,15.7935484 78.6709677,15.5354839 L78.6709677,8.72258065 C78.6709677,6.21935484 76.9677419,5.47096774 75.1612903,5.47096774 C73.0193548,5.47096774 71.4451613,6.37419355 70.2580645,7.61290323 C70.1290323,6.11612903 69.7677419,5.72903226 69.2516129,5.72903226 L63.3419355,5.72903226 L63.3419355,9.10967742 L64.0645161,9.10967742 C64.3225806,9.10967742 64.7096774,9.49677419 64.7096774,9.75483871 L64.7096774,15.5354839 C64.7096774,15.7677419 64.3225806,16.1806452 64.0645161,16.1806452 L63.4193548,16.1806452 L63.4193548,19.3548387 Z M84.6193548,19.5354839 C86.2709677,19.5354839 87.5612903,19.0709677 88.5419355,17.9612903 C88.9806452,18.9935484 89.883871,19.5870968 91.6387097,19.5870968 C92.9806452,19.5870968 94.0645161,19.3032258 94.8645161,18.8645161 L94.8645161,16.1806452 L94.4258065,16.1806452 C94.1677419,16.1806452 93.8064516,15.7935484 93.8064516,15.5354839 L93.8064516,10.0903226 C93.8064516,6.89032258 91.9741935,5.47096774 87.6903226,5.47096774 C84.9032258,5.47096774 82.7612903,5.90967742 81.316129,6.42580645 L81.316129,10.2709677 L83.6645161,10.2709677 C84.2064516,9.83225806 84.9290323,9.34193548 86.3225806,9.34193548 C87.6387097,9.34193548 88.1548387,9.78064516 88.1548387,10.7354839 L88.1548387,11.5612903 C87.4064516,11.4322581 86.683871,11.3806452 85.6774194,11.3806452 C82.4774194,11.3806452 80.3870968,12.6709677 80.3870968,15.6387097 C80.3870968,18.2709677 82.3483871,19.5354839 84.6193548,19.5354839 L84.6193548,19.5354839 Z M86.916129,16.3612903 C86.2193548,16.3612903 85.6774194,16.1032258 85.6774194,15.1225806 C85.6774194,14.116129 86.1677419,13.7806452 87.0709677,13.7806452 C87.4064516,13.7806452 87.8193548,13.8322581 88.1548387,13.883871 L88.1548387,15.9225806 C87.7677419,16.2064516 87.4064516,16.3612903 86.916129,16.3612903 L86.916129,16.3612903 Z M94.9806452,9.10967742 L96.3225806,9.10967742 L96.3225806,15.6129032 C96.3225806,18.7870968 98.3096774,19.6387097 101.303226,19.6387097 C102.593548,19.6387097 103.625806,19.4322581 104.296774,19.2516129 L104.296774,16.1806452 L103.6,16.1806452 C102.36129,16.1806452 101.974194,15.8193548 101.974194,14.6580645 L101.974194,9.10967742 L104.245161,9.10967742 L104.245161,5.72903226 L101.974194,5.72903226 L101.974194,2.19354839 L96.3225806,2.19354839 L96.3225806,5.72903226 L94.9806452,5.72903226 L94.9806452,9.10967742 Z M104.980645,19.3548387 L113.23871,19.3548387 L113.23871,16.1806452 L112.567742,16.1806452 C112.309677,16.1806452 111.922581,15.7935484 111.922581,15.5354839 L111.922581,7.04516129 C111.922581,6.19354839 111.63871,5.72903226 111.122581,5.72903226 L104.903226,5.72903226 L104.903226,9.10967742 L105.651613,9.10967742 C105.909677,9.10967742 106.270968,9.52258065 106.270968,9.75483871 L106.270968,15.5354839 C106.270968,15.7935484 105.909677,16.1806452 105.651613,16.1806452 L104.980645,16.1806452 L104.980645,19.3548387 Z M109.083871,5.18709677 C110.632258,5.18709677 111.716129,4.23225806 111.716129,2.78709677 C111.716129,1.31612903 110.632258,0.335483871 109.083871,0.335483871 C107.56129,0.335483871 106.477419,1.31612903 106.477419,2.78709677 C106.477419,4.23225806 107.56129,5.18709677 109.083871,5.18709677 L109.083871,5.18709677 Z M121.354839,19.5870968 C125.793548,19.5870968 128.993548,16.9548387 128.993548,12.6193548 C128.993548,8.25806452 125.793548,5.47096774 121.354839,5.47096774 C116.890323,5.47096774 113.690323,8.25806452 113.690323,12.6193548 C113.690323,16.9548387 116.890323,19.5870968 121.354839,19.5870968 L121.354839,19.5870968 Z M121.354839,16.2322581 C120.167742,16.2322581 119.393548,15.1225806 119.393548,12.6451613 C119.393548,10.1935484 120.167742,9.13548387 121.354839,9.13548387 C122.516129,9.13548387 123.290323,10.1935484 123.290323,12.6451613 C123.290323,15.1225806 122.516129,16.2322581 121.354839,16.2322581 L121.354839,16.2322581 Z M129.6,19.3548387 L138.03871,19.3548387 L138.03871,16.1806452 L136.516129,16.1806452 L136.516129,9.75483871 C136.929032,9.70322581 137.341935,9.67741935 137.574194,9.67741935 C138.735484,9.67741935 139.225806,9.88387097 139.225806,10.8903226 L139.225806,19.3548387 L145.909677,19.3548387 L145.909677,16.1806452 L145.496774,16.1806452 C145.23871,16.1806452 144.851613,15.7935484 144.851613,15.5354839 L144.851613,8.72258065 C144.851613,6.21935484 143.148387,5.47096774 141.341935,5.47096774 C139.2,5.47096774 137.625806,6.37419355 136.43871,7.61290323 C136.309677,6.11612903 135.948387,5.72903226 135.432258,5.72903226 L129.522581,5.72903226 L129.522581,9.10967742 L130.245161,9.10967742 C130.503226,9.10967742 130.890323,9.49677419 130.890323,9.75483871 L130.890323,15.5354839 C130.890323,15.7677419 130.503226,16.1806452 130.245161,16.1806452 L129.6,16.1806452 L129.6,19.3548387 Z M150.8,19.5354839 C152.451613,19.5354839 153.741935,19.0709677 154.722581,17.9612903 C155.16129,18.9935484 156.064516,19.5870968 157.819355,19.5870968 C159.16129,19.5870968 160.245161,19.3032258 161.045161,18.8645161 L161.045161,16.1806452 L160.606452,16.1806452 C160.348387,16.1806452 159.987097,15.7935484 159.987097,15.5354839 L159.987097,10.0903226 C159.987097,6.89032258 158.154839,5.47096774 153.870968,5.47096774 C151.083871,5.47096774 148.941935,5.90967742 147.496774,6.42580645 L147.496774,10.2709677 L149.845161,10.2709677 C150.387097,9.83225806 151.109677,9.34193548 152.503226,9.34193548 C153.819355,9.34193548 154.335484,9.78064516 154.335484,10.7354839 L154.335484,11.5612903 C153.587097,11.4322581 152.864516,11.3806452 151.858065,11.3806452 C148.658065,11.3806452 146.567742,12.6709677 146.567742,15.6387097 C146.567742,18.2709677 148.529032,19.5354839 150.8,19.5354839 L150.8,19.5354839 Z M153.096774,16.3612903 C152.4,16.3612903 151.858065,16.1032258 151.858065,15.1225806 C151.858065,14.116129 152.348387,13.7806452 153.251613,13.7806452 C153.587097,13.7806452 154,13.8322581 154.335484,13.883871 L154.335484,15.9225806 C153.948387,16.2064516 153.587097,16.3612903 153.096774,16.3612903 L153.096774,16.3612903 Z M161.677419,19.3548387 L170.090323,19.3548387 L170.090323,16.1806452 L169.316129,16.1806452 C169.058065,16.1806452 168.696774,15.7935484 168.696774,15.5354839 L168.696774,2.42580645 C168.696774,1.72903226 168.387097,1.29032258 167.870968,1.29032258 L161.625806,1.29032258 L161.625806,4.59354839 L162.425806,4.59354839 C162.683871,4.59354839 163.045161,4.98064516 163.045161,5.23870968 L163.045161,15.5354839 C163.045161,15.7935484 162.683871,16.1806452 162.425806,16.1806452 L161.677419,16.1806452 L161.677419,19.3548387 Z M174.709677,19.3548387 L183.535484,19.3548387 C188.387097,19.3548387 191.406452,17.6516129 191.406452,14.1677419 C191.406452,11.716129 189.935484,10.3483871 187.277419,9.93548387 L187.277419,9.83225806 C189.548387,9.29032258 190.864516,8.23225806 190.864516,5.96129032 C190.864516,2.81290323 188.283871,1.29032258 183.458065,1.29032258 L174.709677,1.29032258 L174.709677,4.56774194 L175.458065,4.56774194 C175.767742,4.56774194 176.180645,5.00645161 176.180645,5.29032258 L176.180645,15.4064516 C176.180645,15.6903226 175.767742,16.1548387 175.458065,16.1548387 L174.709677,16.1548387 L174.709677,19.3548387 Z M182.116129,16.0258065 L182.116129,11.6903226 L183.148387,11.6903226 C184.748387,11.6903226 185.341935,12.3354839 185.341935,13.8064516 C185.341935,15.3032258 184.748387,16.0258065 183.148387,16.0258065 L182.116129,16.0258065 Z M182.116129,4.69677419 L183.070968,4.69677419 C184.516129,4.69677419 185.058065,5.34193548 185.058065,6.60645161 C185.058065,7.87096774 184.490323,8.54193548 183.045161,8.54193548 L182.116129,8.54193548 L182.116129,4.69677419 Z M196.529032,19.5870968 C198.696774,19.5870968 200.141935,18.7096774 201.303226,17.4967742 C201.458065,18.9677419 201.819355,19.3548387 202.335484,19.3548387 L208.116129,19.3548387 L208.116129,16.1806452 L207.522581,16.1806452 C207.264516,16.1806452 206.903226,15.7677419 206.903226,15.5354839 L206.903226,5.72903226 L199.883871,5.72903226 L199.883871,9.10967742 L201.251613,9.10967742 L201.251613,15.4064516 C200.83871,15.483871 200.451613,15.5096774 200.245161,15.5096774 C199.109677,15.5096774 198.567742,15.2774194 198.567742,14.2193548 L198.567742,5.72903226 L191.754839,5.72903226 L191.754839,9.10967742 L192.296774,9.10967742 C192.529032,9.10967742 192.916129,9.49677419 192.916129,9.75483871 L192.916129,16.3354839 C192.916129,18.8387097 194.722581,19.5870968 196.529032,19.5870968 L196.529032,19.5870968 Z M214.477419,19.5870968 C219.019355,19.5870968 220.929032,17.883871 220.929032,14.7096774 C220.929032,11.5354839 219.2,10.7354839 215.819355,10.3225806 C214.193548,10.116129 213.780645,9.96129032 213.780645,9.49677419 C213.780645,9.03225806 214.167742,8.77419355 215.303226,8.77419355 C216.36129,8.77419355 217.058065,9.13548387 217.470968,9.72903226 L220.412903,9.72903226 L220.412903,6.16774194 C219.096774,5.75483871 217.548387,5.47096774 215.045161,5.47096774 C211.225806,5.47096774 208.8,6.91612903 208.8,10.0645161 C208.8,13.1354839 210.529032,14.1935484 213.496774,14.5290323 C215.251613,14.7096774 215.690323,14.8645161 215.690323,15.4322581 C215.690323,16 215.070968,16.2580645 214.167742,16.2580645 C213.135484,16.2580645 212.206452,15.7935484 211.793548,15.0451613 L208.825806,15.0451613 L208.825806,18.8387097 C210.03871,19.2258065 211.741935,19.5870968 214.477419,19.5870968 L214.477419,19.5870968 Z M221.716129,19.3548387 L229.974194,19.3548387 L229.974194,16.1806452 L229.303226,16.1806452 C229.045161,16.1806452 228.658065,15.7935484 228.658065,15.5354839 L228.658065,7.04516129 C228.658065,6.19354839 228.374194,5.72903226 227.858065,5.72903226 L221.63871,5.72903226 L221.63871,9.10967742 L222.387097,9.10967742 C222.645161,9.10967742 223.006452,9.52258065 223.006452,9.75483871 L223.006452,15.5354839 C223.006452,15.7935484 222.645161,16.1806452 222.387097,16.1806452 L221.716129,16.1806452 L221.716129,19.3548387 Z M225.819355,5.18709677 C227.367742,5.18709677 228.451613,4.23225806 228.451613,2.78709677 C228.451613,1.31612903 227.367742,0.335483871 225.819355,0.335483871 C224.296774,0.335483871 223.212903,1.31612903 223.212903,2.78709677 C223.212903,4.23225806 224.296774,5.18709677 225.819355,5.18709677 L225.819355,5.18709677 Z M230.632258,19.3548387 L239.070968,19.3548387 L239.070968,16.1806452 L237.548387,16.1806452 L237.548387,9.75483871 C237.96129,9.70322581 238.374194,9.67741935 238.606452,9.67741935 C239.767742,9.67741935 240.258065,9.88387097 240.258065,10.8903226 L240.258065,19.3548387 L246.941935,19.3548387 L246.941935,16.1806452 L246.529032,16.1806452 C246.270968,16.1806452 245.883871,15.7935484 245.883871,15.5354839 L245.883871,8.72258065 C245.883871,6.21935484 244.180645,5.47096774 242.374194,5.47096774 C240.232258,5.47096774 238.658065,6.37419355 237.470968,7.61290323 C237.341935,6.11612903 236.980645,5.72903226 236.464516,5.72903226 L230.554839,5.72903226 L230.554839,9.10967742 L231.277419,9.10967742 C231.535484,9.10967742 231.922581,9.49677419 231.922581,9.75483871 L231.922581,15.5354839 C231.922581,15.7677419 231.535484,16.1806452 231.277419,16.1806452 L230.632258,16.1806452 L230.632258,19.3548387 Z M261.535484,13.7548387 C261.535484,13.5741935 261.587097,13.0580645 261.587097,12.4129032 C261.587097,7.63870968 259.419355,5.47096774 254.8,5.47096774 C250.232258,5.47096774 247.419355,8.25806452 247.419355,12.6193548 C247.419355,16.9290323 249.56129,19.5870968 254.877419,19.5870968 C258,19.5870968 259.806452,19.0451613 261.045161,18.3483871 L261.045161,15.0709677 L258.077419,15.0709677 C257.56129,15.7419355 256.864516,16.2322581 255.470968,16.2322581 C253.922581,16.2322581 253.251613,15.483871 253.070968,13.7548387 L261.535484,13.7548387 Z M254.8,8.69677419 C255.780645,8.69677419 256.219355,9.34193548 256.348387,11.0967742 L253.096774,11.0967742 C253.277419,9.34193548 253.793548,8.69677419 254.8,8.69677419 L254.8,8.69677419 Z M267.974194,19.5870968 C272.516129,19.5870968 274.425806,17.883871 274.425806,14.7096774 C274.425806,11.5354839 272.696774,10.7354839 269.316129,10.3225806 C267.690323,10.116129 267.277419,9.96129032 267.277419,9.49677419 C267.277419,9.03225806 267.664516,8.77419355 268.8,8.77419355 C269.858065,8.77419355 270.554839,9.13548387 270.967742,9.72903226 L273.909677,9.72903226 L273.909677,6.16774194 C272.593548,5.75483871 271.045161,5.47096774 268.541935,5.47096774 C264.722581,5.47096774 262.296774,6.91612903 262.296774,10.0645161 C262.296774,13.1354839 264.025806,14.1935484 266.993548,14.5290323 C268.748387,14.7096774 269.187097,14.8645161 269.187097,15.4322581 C269.187097,16 268.567742,16.2580645 267.664516,16.2580645 C266.632258,16.2580645 265.703226,15.7935484 265.290323,15.0451613 L262.322581,15.0451613 L262.322581,18.8387097 C263.535484,19.2258065 265.23871,19.5870968 267.974194,19.5870968 L267.974194,19.5870968 Z M280.812903,19.5870968 C285.354839,19.5870968 287.264516,17.883871 287.264516,14.7096774 C287.264516,11.5354839 285.535484,10.7354839 282.154839,10.3225806 C280.529032,10.116129 280.116129,9.96129032 280.116129,9.49677419 C280.116129,9.03225806 280.503226,8.77419355 281.63871,8.77419355 C282.696774,8.77419355 283.393548,9.13548387 283.806452,9.72903226 L286.748387,9.72903226 L286.748387,6.16774194 C285.432258,5.75483871 283.883871,5.47096774 281.380645,5.47096774 C277.56129,5.47096774 275.135484,6.91612903 275.135484,10.0645161 C275.135484,13.1354839 276.864516,14.1935484 279.832258,14.5290323 C281.587097,14.7096774 282.025806,14.8645161 282.025806,15.4322581 C282.025806,16 281.406452,16.2580645 280.503226,16.2580645 C279.470968,16.2580645 278.541935,15.7935484 278.129032,15.0451613 L275.16129,15.0451613 L275.16129,18.8387097 C276.374194,19.2258065 278.077419,19.5870968 280.812903,19.5870968 L280.812903,19.5870968 Z M295.858065,19.3548387 L305.045161,19.3548387 L305.045161,16.1806452 L304.193548,16.1806452 C303.883871,16.1806452 303.470968,15.716129 303.470968,15.4322581 L303.470968,4.7483871 L304.916129,4.7483871 L305.329032,8.07741935 L308.890323,8.07741935 L308.890323,1.29032258 L292.012903,1.29032258 L292.012903,8.07741935 L295.6,8.07741935 L295.987097,4.7483871 L297.432258,4.7483871 L297.432258,15.4322581 C297.432258,15.716129 297.019355,16.1806452 296.709677,16.1806452 L295.858065,16.1806452 L295.858065,19.3548387 Z M309.677419,19.3548387 L317.935484,19.3548387 L317.935484,16.1806452 L317.264516,16.1806452 C317.006452,16.1806452 316.619355,15.7935484 316.619355,15.5354839 L316.619355,7.04516129 C316.619355,6.19354839 316.335484,5.72903226 315.819355,5.72903226 L309.6,5.72903226 L309.6,9.10967742 L310.348387,9.10967742 C310.606452,9.10967742 310.967742,9.52258065 310.967742,9.75483871 L310.967742,15.5354839 C310.967742,15.7935484 310.606452,16.1806452 310.348387,16.1806452 L309.677419,16.1806452 L309.677419,19.3548387 Z M313.780645,5.18709677 C315.329032,5.18709677 316.412903,4.23225806 316.412903,2.78709677 C316.412903,1.31612903 315.329032,0.335483871 313.780645,0.335483871 C312.258065,0.335483871 311.174194,1.31612903 311.174194,2.78709677 C311.174194,4.23225806 312.258065,5.18709677 313.780645,5.18709677 L313.780645,5.18709677 Z M318.593548,19.3548387 L326.722581,19.3548387 L326.722581,16.1806452 L325.509677,16.1806452 L325.509677,9.75483871 C325.896774,9.70322581 326.309677,9.67741935 326.516129,9.67741935 C327.677419,9.67741935 327.883871,9.85806452 327.883871,10.8645161 L327.883871,19.3548387 L334.722581,19.3548387 L334.722581,16.1806452 L333.509677,16.1806452 L333.509677,9.75483871 C333.896774,9.70322581 334.309677,9.67741935 334.516129,9.67741935 C335.677419,9.67741935 335.858065,9.85806452 335.858065,10.8645161 L335.858065,19.3548387 L342.567742,19.3548387 L342.567742,16.1806452 L342.154839,16.1806452 C341.896774,16.1806452 341.509677,15.7935484 341.509677,15.5354839 L341.509677,8.72258065 C341.509677,6.21935484 339.806452,5.47096774 338.025806,5.47096774 C335.832258,5.47096774 334.490323,6.55483871 333.406452,7.76774194 C333.019355,6.03870968 331.548387,5.47096774 330.025806,5.47096774 C327.858065,5.47096774 326.516129,6.52903226 325.458065,7.71612903 C325.329032,6.14193548 324.967742,5.72903226 324.425806,5.72903226 L318.516129,5.72903226 L318.516129,9.10967742 L319.23871,9.10967742 C319.496774,9.10967742 319.883871,9.52258065 319.883871,9.75483871 L319.883871,15.5354839 C319.883871,15.7677419 319.496774,16.1806452 319.23871,16.1806452 L318.593548,16.1806452 L318.593548,19.3548387 Z M357.135484,13.7548387 C357.135484,13.5741935 357.187097,13.0580645 357.187097,12.4129032 C357.187097,7.63870968 355.019355,5.47096774 350.4,5.47096774 C345.832258,5.47096774 343.019355,8.25806452 343.019355,12.6193548 C343.019355,16.9290323 345.16129,19.5870968 350.477419,19.5870968 C353.6,19.5870968 355.406452,19.0451613 356.645161,18.3483871 L356.645161,15.0709677 L353.677419,15.0709677 C353.16129,15.7419355 352.464516,16.2322581 351.070968,16.2322581 C349.522581,16.2322581 348.851613,15.483871 348.670968,13.7548387 L357.135484,13.7548387 Z M350.4,8.69677419 C351.380645,8.69677419 351.819355,9.34193548 351.948387,11.0967742 L348.696774,11.0967742 C348.877419,9.34193548 349.393548,8.69677419 350.4,8.69677419 L350.4,8.69677419 Z M363.574194,19.5870968 C368.116129,19.5870968 370.025806,17.883871 370.025806,14.7096774 C370.025806,11.5354839 368.296774,10.7354839 364.916129,10.3225806 C363.290323,10.116129 362.877419,9.96129032 362.877419,9.49677419 C362.877419,9.03225806 363.264516,8.77419355 364.4,8.77419355 C365.458065,8.77419355 366.154839,9.13548387 366.567742,9.72903226 L369.509677,9.72903226 L369.509677,6.16774194 C368.193548,5.75483871 366.645161,5.47096774 364.141935,5.47096774 C360.322581,5.47096774 357.896774,6.91612903 357.896774,10.0645161 C357.896774,13.1354839 359.625806,14.1935484 362.593548,14.5290323 C364.348387,14.7096774 364.787097,14.8645161 364.787097,15.4322581 C364.787097,16 364.167742,16.2580645 363.264516,16.2580645 C362.232258,16.2580645 361.303226,15.7935484 360.890323,15.0451613 L357.922581,15.0451613 L357.922581,18.8387097 C359.135484,19.2258065 360.83871,19.5870968 363.574194,19.5870968 L363.574194,19.5870968 Z" id="IBT" fill="#181818"></path>
                </g>
            </g>
        </g>
    </g>
</svg>