<?xml version="1.0" encoding="UTF-8" standalone="no"?>
<svg width="132px" height="20px" viewBox="0 0 132 20" version="1.1" xmlns="http://www.w3.org/2000/svg" xmlns:xlink="http://www.w3.org/1999/xlink" xmlns:sketch="http://www.bohemiancoding.com/sketch/ns">
    <!-- Generator: Sketch 3.4.2 (15857) - http://www.bohemiancoding.com/sketch -->
    <title>Logo Copy</title>
    <desc>Created with Sketch.</desc>
    <defs></defs>
    <g id="Page-1" stroke="none" stroke-width="1" fill="none" fill-rule="evenodd" sketch:type="MSPage">
        <g id="Desktop-Standard-Article-Copy" sketch:type="MSArtboardGroup" transform="translate(-151.000000, -5737.000000)" fill="#FF0523">
            <g id="Article" sketch:type="MSLayerGroup" transform="translate(148.000000, 298.000000)">
                <path d="M26.2296481,5450.23838 L30.8478039,5450.23838 C30.8478039,5448.25216 29.5549319,5447.46008 28.5889809,5447.46008 C27.4745576,5447.46008 26.3079399,5448.38159 26.2296481,5450.23838 L26.2296481,5450.23838 Z M94.8876419,5450.20734 L99.5065031,5450.20734 C99.5065031,5448.22148 98.213631,5447.42939 97.2473273,5447.42939 C96.1329041,5447.42939 94.966639,5448.34985 94.8876419,5450.20734 L94.8876419,5450.20734 Z M108.82957,5450.17666 L113.447726,5450.17666 C113.447726,5448.19045 112.154854,5447.39801 111.188903,5447.39801 C110.07448,5447.39801 108.907862,5448.31917 108.82957,5450.17666 L108.82957,5450.17666 Z M133.815927,5457.77942 C133.841672,5457.75968 133.85472,5457.73287 133.85472,5457.70149 C133.85472,5457.66939 133.842024,5457.644 133.817338,5457.62319 C133.792651,5457.60344 133.751742,5457.59322 133.692494,5457.59322 L133.590926,5457.59322 L133.590926,5457.8094 L133.68403,5457.8094 C133.746452,5457.8094 133.790182,5457.79953 133.815927,5457.77942 L133.815927,5457.77942 Z M133.841672,5457.93107 C133.875527,5457.94306 133.899861,5457.95787 133.915379,5457.97163 C133.937949,5457.99102 133.96052,5458.02171 133.984501,5458.05979 C133.985912,5458.06261 134.033522,5458.14725 134.125567,5458.31336 L133.86918,5458.31336 C133.786656,5458.1462 133.730582,5458.0471 133.702369,5458.0143 C133.673803,5457.98256 133.645237,5457.96634 133.617729,5457.96634 C133.610323,5457.96634 133.601859,5457.96669 133.590926,5457.96951 L133.590926,5458.31336 L133.385322,5458.31336 L133.385322,5457.44122 L133.76338,5457.44122 C133.873412,5457.44122 133.939713,5457.46344 133.989086,5457.50822 C134.038459,5457.55266 134.063146,5457.61261 134.063146,5457.68667 C134.063146,5457.74486 134.044102,5457.79529 134.007072,5457.83797 C133.968984,5457.88029 133.922785,5457.91132 133.841672,5457.93107 L133.841672,5457.93107 Z M134.187637,5458.34228 C134.316359,5458.21426 134.380545,5458.05909 134.380545,5457.87747 C134.380545,5457.69549 134.316359,5457.54067 134.187637,5457.4123 C134.059972,5457.28358 133.904446,5457.21904 133.723176,5457.21904 C133.541201,5457.21904 133.386733,5457.28358 133.257305,5457.4123 C133.12964,5457.54067 133.065455,5457.69549 133.065455,5457.87747 C133.065455,5458.05909 133.12964,5458.21426 133.257305,5458.34228 C133.386733,5458.4703 133.541201,5458.53554 133.723176,5458.53554 C133.904446,5458.53554 134.059972,5458.4703 134.187637,5458.34228 L134.187637,5458.34228 Z M134.538186,5457.87747 C134.538186,5458.02347 134.501509,5458.15889 134.429212,5458.28515 C134.355858,5458.4114 134.255701,5458.51085 134.13121,5458.58385 C134.00425,5458.65686 133.867769,5458.69283 133.722471,5458.69283 C133.577172,5458.69283 133.441749,5458.65686 133.315495,5458.58385 C133.18924,5458.51085 133.090141,5458.4114 133.016787,5458.28515 C132.944843,5458.15889 132.907108,5458.02347 132.907108,5457.87747 C132.907108,5457.73181 132.944843,5457.59604 133.016787,5457.46943 C133.090141,5457.34247 133.18924,5457.24373 133.315495,5457.17108 C133.441749,5457.09772 133.577172,5457.0614 133.722471,5457.0614 C133.867769,5457.0614 134.00425,5457.09772 134.13121,5457.17108 C134.255701,5457.24373 134.355858,5457.34247 134.429212,5457.46943 C134.501509,5457.59604 134.538186,5457.73181 134.538186,5457.87747 L134.538186,5457.87747 Z M132.641551,5458.65862 L128.387698,5458.65862 L123.97691,5452.88725 L122.535213,5453.959 L122.535213,5455.07695 L123.793171,5455.07695 L123.793171,5458.65862 L117.263568,5458.65862 L117.263568,5455.0907 L118.501777,5455.0907 L118.501777,5442.53475 L116.644992,5442.53475 L116.644992,5439.01726 L122.535213,5439.01726 L122.535213,5450.31173 L125.486319,5448.15377 L123.629182,5448.15377 L123.629182,5444.55376 L131.582143,5444.55376 L131.582143,5448.15377 L130.343934,5448.15377 L127.235893,5450.46302 L130.785119,5455.08753 L132.641551,5455.08753 L132.641551,5458.65862 L132.641551,5458.65862 Z M117.303772,5451.58838 C117.303772,5451.87616 117.303772,5452.16393 117.277674,5452.47816 L108.820754,5452.47816 C108.602806,5455.19509 109.613546,5456.01751 111.179029,5456.01751 C112.486713,5456.01751 113.457601,5455.16511 113.457601,5453.81194 L117.102752,5453.81194 C117.024461,5456.19172 115.760507,5458.93828 110.948033,5458.93828 C106.109108,5458.93828 103.86016,5455.45924 103.86016,5451.56264 C103.86016,5448.08359 106.187753,5444.36967 110.869388,5444.36967 C115.341893,5444.36967 117.303772,5447.48229 117.303772,5451.58838 L117.303772,5451.58838 Z M103.362196,5451.61906 C103.362196,5451.90719 103.362196,5452.19461 103.336099,5452.50848 L94.8795306,5452.50848 C94.6615833,5455.22577 95.6723228,5456.04819 97.2374527,5456.04819 C98.5451367,5456.04819 99.5163777,5455.1965 99.5163777,5453.84262 L103.161176,5453.84262 C103.082885,5456.22311 101.819284,5458.96897 97.0064567,5458.96897 C92.1678849,5458.96897 89.9182312,5455.49027 89.9182312,5451.59332 C89.9182312,5448.11498 92.2461767,5444.4007 96.928165,5444.4007 C101.40067,5444.4007 103.362196,5447.51368 103.362196,5451.61906 L103.362196,5451.61906 Z M90.311806,5448.12908 L89.0732444,5448.12908 L85.9373421,5458.68613 L81.7720089,5458.68613 L79.7999029,5452.90276 L78.0563243,5458.68613 L73.8063513,5458.68613 L70.2867488,5448.12908 L69.0485399,5448.12908 L69.0485399,5444.55376 L76.4111393,5444.55376 L76.4111393,5448.12908 L74.5536497,5448.12908 L76.4710925,5453.75093 L78.9972361,5444.55376 L81.2613491,5444.55376 L84.3623376,5453.75057 L86.0117545,5448.12908 L84.1546175,5448.12908 L84.1546175,5444.55376 L90.311806,5444.55376 L90.311806,5448.12908 L90.311806,5448.12908 Z M60.9210089,5448.27579 C60.9210089,5448.77376 61.3135257,5449.11373 62.6995014,5449.55808 L64.68783,5450.21193 C66.518517,5450.81357 68.715271,5452.1738 68.715271,5454.65869 C68.715271,5457.58828 66.518517,5459 63.824152,5459 C61.6799452,5459 59.9846818,5457.95364 59.5403231,5457.48319 L59.5346805,5458.68613 L55.9353756,5458.68613 L55.9353756,5453.79501 L59.4563887,5453.79501 C59.5611304,5455.39117 60.9735561,5456.22734 62.2812401,5456.22734 C63.3275988,5456.22734 63.824152,5455.78334 63.824152,5455.23424 C63.824152,5454.58004 63.4319879,5454.21362 61.6534953,5453.63878 L59.9011,5453.06217 C58.1226075,5452.48732 56.1085344,5451.17964 56.1085344,5448.7995 C56.1085344,5445.896 58.6717078,5444.43174 60.8688144,5444.43174 C63.1442127,5444.43174 64.2314807,5445.06407 64.7809337,5445.69216 L64.792219,5444.59361 L68.3978719,5444.59361 L68.3978719,5449.01357 L64.68783,5449.01357 C64.6352828,5447.81027 63.4580851,5447.28269 62.2812401,5447.28269 C61.3657202,5447.28269 60.9210089,5447.70059 60.9210089,5448.27579 L60.9210089,5448.27579 Z M55.7463468,5448.12908 L54.5081379,5448.12908 L51.3722356,5458.68613 L47.2069024,5458.68613 L45.2347964,5452.90276 L43.4908651,5458.68613 L39.2408922,5458.68613 L35.7216423,5448.12908 L34.4830808,5448.12908 L34.4830808,5444.55376 L41.8456802,5444.55376 L41.8456802,5448.12908 L39.9888959,5448.12908 L41.905986,5453.75093 L44.4321296,5444.55376 L46.6958899,5444.55376 L49.7968784,5453.75057 L51.446648,5448.12908 L49.5898637,5448.12908 L49.5898637,5444.55376 L55.7463468,5444.55376 L55.7463468,5448.12908 L55.7463468,5448.12908 Z M34.7038494,5451.6501 C34.7038494,5451.93822 34.7038494,5452.22565 34.6777522,5452.54022 L26.2211842,5452.54022 C26.0032368,5455.25716 27.0139764,5456.07958 28.5791062,5456.07958 C29.8871429,5456.07958 30.8580312,5455.22683 30.8580312,5453.87365 L34.50283,5453.87365 C34.4245383,5456.25379 33.1605848,5459 28.3481103,5459 C23.5095385,5459 21.2602374,5455.52131 21.2602374,5451.6247 C21.2602374,5448.14566 23.5878302,5444.43174 28.2694659,5444.43174 C32.7419708,5444.43174 34.7038494,5447.54436 34.7038494,5451.6501 Z M22.4953535,5442.55182 L20.6421054,5442.55182 L20.6421054,5458.49535 L17.2238375,5458.49535 L8.87155168,5447.63295 L8.87155168,5454.94353 L10.7247998,5454.94353 L10.7247998,5458.49535 L3,5458.49535 L3,5454.94353 L4.85289616,5454.94353 L4.85289616,5442.55182 L3,5442.55182 L3,5439 L8.86416121,5439 L16.6238018,5449.11051 L16.6238018,5442.55182 L14.7702018,5442.55182 L14.7702018,5439 L22.4953535,5439 L22.4953535,5442.55182 Z" id="Logo-Copy" sketch:type="MSShapeGroup"></path>
            </g>
        </g>
    </g>
</svg>