<?xml version="1.0" encoding="UTF-8" standalone="no"?>
<svg width="28px" height="27px" viewBox="0 0 28 27" version="1.1" xmlns="http://www.w3.org/2000/svg" xmlns:xlink="http://www.w3.org/1999/xlink" xmlns:sketch="http://www.bohemiancoding.com/sketch/ns">
    <!-- Generator: Sketch 3.4.1 (15681) - http://www.bohemiancoding.com/sketch -->
    <title>Shape</title>
    <desc>Created with Sketch.</desc>
    <defs></defs>
    <g id="Magazine-Issues" stroke="none" stroke-width="1" fill="none" fill-rule="evenodd" sketch:type="MSPage">
        <g id="Tablet-Magazine-Issue" sketch:type="MSArtboardGroup" transform="translate(-445.000000, -386.000000)" fill="#757575">
            <g id="Body" sketch:type="MSLayerGroup" transform="translate(0.000000, 284.000000)">
                <g id="Header" sketch:type="MSShapeGroup">
                    <g id="Download" transform="translate(279.000000, 85.000000)">
                        <g id="amazon" transform="translate(150.000000, 0.000000)">
                            <path d="M16.2871021,36.7742247 C16.0500051,36.7571224 15.9292693,37.0991687 16.1602421,37.3629045 C19.7788157,41.4863631 24.5540029,43.9679993 29.8663769,43.9679993 C33.6555554,43.9679993 38.0580365,42.4566945 41.0939288,39.6339121 C41.5969945,39.1631483 41.168295,38.466454 40.6556054,38.7427914 C37.2531314,40.5646382 33.5531924,41.441357 30.1909636,41.441357 C25.2023015,41.441357 20.3711209,39.7185236 16.466456,36.8516352 C16.4025885,36.8039287 16.3422206,36.7787253 16.2871021,36.7742247 M41.7238545,36.090132 C40.7535939,36.1081345 39.6039794,36.3790712 38.7360816,37.1486754 C38.4683632,37.3845074 38.5138578,37.7121518 38.8113228,37.6662455 C39.7894575,37.5195257 41.9723253,37.1891809 42.3599046,37.8147657 C42.7483588,38.4430508 41.9285804,41.0255006 41.5628735,42.1785568 C41.4508867,42.5287043 41.6871089,42.674524 41.9373294,42.4107883 C43.5690121,40.6915554 43.985463,37.0919677 43.6538771,36.5716973 C43.4876467,36.3133623 42.6941152,36.0739298 41.7238545,36.090132 M31.8077731,27.9575303 L31.8077731,28.7253343 C31.8077731,30.1061213 31.8453937,31.2546769 31.1673486,32.4815432 C30.6187882,33.4797784 29.7500156,34.0927614 28.7797549,34.0927614 C27.4569108,34.0927614 26.6887514,33.055821 26.6887514,31.5247135 C26.6887514,28.5030042 29.3169416,27.9575303 31.8077731,27.9575303 M29.941618,17.4 C26.6642542,17.4 23.0045605,18.6574704 22.2337764,22.8277353 C22.1559105,23.2714954 22.4664989,23.5055271 22.7482157,23.5703359 L26.0876972,23.9384858 C26.3982856,23.9240838 26.6301333,23.6099413 26.6887514,23.2912981 C26.9748426,21.8547035 28.1489543,21.1625097 29.4621745,21.1625097 C30.1699661,21.1625097 30.9704968,21.4307461 31.3921971,22.0842346 C31.8716406,22.8124332 31.8077731,23.8097684 31.8077731,24.6522825 L31.8077731,25.1104446 C29.8112584,25.3444763 27.2023158,25.4992972 25.3309114,26.3472121 C23.1734156,27.3040417 21.6554695,29.2591066 21.6554695,32.1376966 C21.6554695,35.8227958 23.9109537,37.6662455 26.8094871,37.6662455 C29.262698,37.6662455 30.6047899,37.0712649 32.4954421,35.0855959 C33.1262427,36.0181223 33.3283439,36.4744841 34.4718342,37.4520165 C34.7290539,37.5915354 35.05889,37.5789337 35.2872381,37.3683052 L35.2977368,37.374606 C35.9871556,36.7463209 37.2356335,35.6238689 37.9390506,35.0207872 C38.2198925,34.7813547 38.1743978,34.399703 37.9512991,34.0810598 C37.3204985,33.1836383 36.6503274,32.4545395 36.6503274,30.7929144 L36.6503274,25.2652655 C36.6503274,22.9258486 36.8078089,20.7763574 35.1306315,19.1651391 C33.8069125,17.8581621 31.6187954,17.4 29.941618,17.4" id="Shape"></path>
                        </g>
                    </g>
                </g>
            </g>
        </g>
    </g>
</svg>