<?xml version="1.0" encoding="UTF-8" standalone="no"?>
<svg width="21px" height="26px" viewBox="0 0 21 26" version="1.1" xmlns="http://www.w3.org/2000/svg" xmlns:xlink="http://www.w3.org/1999/xlink" xmlns:sketch="http://www.bohemiancoding.com/sketch/ns">
    <!-- Generator: Sketch 3.4.1 (15681) - http://www.bohemiancoding.com/sketch -->
    <title>Shape</title>
    <desc>Created with Sketch.</desc>
    <defs></defs>
    <g id="Magazine-Issues" stroke="none" stroke-width="1" fill="none" fill-rule="evenodd" sketch:type="MSPage">
        <g id="Tablet-Magazine-Issue" sketch:type="MSArtboardGroup" transform="translate(-299.000000, -385.000000)" fill="#757575">
            <g id="Body" sketch:type="MSLayerGroup" transform="translate(0.000000, 284.000000)">
                <g id="Header" sketch:type="MSShapeGroup">
                    <g id="Download" transform="translate(279.000000, 85.000000)">
                        <g id="apple">
                            <path d="M40.7454545,34.5251405 C40.1839432,35.8362437 39.9130634,36.4199438 39.1878955,37.5814183 C38.1763286,39.1991863 36.7485661,41.2169518 34.9793821,41.2317665 C33.4091256,41.2480627 33.0056275,40.157699 30.8724488,40.1710322 C28.7420917,40.182884 28.2962686,41.2510257 26.7246012,41.2362109 C24.9568281,41.2199147 23.6052506,39.399185 22.5922728,37.7799356 C19.7621429,33.2555186 19.4644572,27.9429582 21.2110678,25.1177901 C22.4526004,23.1118763 24.4094251,21.9385501 26.2505615,21.9385501 C28.1227362,21.9385501 29.3007814,23.0170621 30.8512863,23.0170621 C32.3538229,23.0170621 33.2694532,21.9355872 35.4364919,21.9355872 C37.0758792,21.9355872 38.8112032,22.8733592 40.0470925,24.4911272 C35.9951815,26.8244464 36.6526295,32.8984837 40.7454545,34.5251405 L40.7454545,34.5251405 Z M33.7942828,20.1267092 C34.5801165,19.0659749 35.1783095,17.5667247 34.9624522,16.0363636 C33.6757729,16.1282149 32.1704146,16.9889505 31.2928768,18.1089437 C30.4943456,19.1237523 29.8368977,20.6333728 30.0922584,22.1000306 C31.5002692,22.1459562 32.9520158,21.2644801 33.7942828,20.1267092 L33.7942828,20.1267092 Z" id="Shape"></path>
                        </g>
                    </g>
                </g>
            </g>
        </g>
    </g>
</svg>