<?xml version="1.0" encoding="UTF-8" standalone="no"?>
<svg width="24px" height="26px" viewBox="0 0 24 26" version="1.1" xmlns="http://www.w3.org/2000/svg" xmlns:xlink="http://www.w3.org/1999/xlink" xmlns:sketch="http://www.bohemiancoding.com/sketch/ns">
    <!-- Generator: Sketch 3.4.1 (15681) - http://www.bohemiancoding.com/sketch -->
    <title>Shape</title>
    <desc>Created with Sketch.</desc>
    <defs></defs>
    <g id="Magazine-Issues" stroke="none" stroke-width="1" fill="none" fill-rule="evenodd" sketch:type="MSPage">
        <g id="Tablet-Magazine-Issue" sketch:type="MSArtboardGroup" transform="translate(-375.000000, -386.000000)" fill="#757575">
            <g id="Body" sketch:type="MSLayerGroup" transform="translate(0.000000, 284.000000)">
                <g id="Header" sketch:type="MSShapeGroup">
                    <g id="Download" transform="translate(279.000000, 85.000000)">
                        <g id="googleplay" transform="translate(75.000000, 0.000000)">
                            <path d="M35.211661,30.4375672 L22.9663408,42.2560325 L22.9511646,42.2707871 L22.5983172,42.6 C23.1380219,42.2966078 33.3838739,36.554287 33.3838739,36.554287 L38.5418949,33.6457789 L38.3796989,33.5028433 L35.211661,30.4375672 Z M39.1755025,26.6262597 L39.1024668,26.6981886 L39.0872906,26.6981886 L38.9696748,26.8272917 L37.4662796,28.2741684 L35.8604448,29.8215611 L35.8300924,29.8363157 L35.8300924,29.849226 L35.7124766,29.9506642 L38.9696748,33.1017016 L39.0872906,33.2308047 L39.1024668,33.2308047 L39.1755025,33.3018114 L44.1125196,30.5233286 C44.6522243,30.2199363 44.6844738,29.8132616 44.3325749,29.5347678 C44.3079136,29.5144802 44.2737671,29.4960369 44.2443631,29.4775936 L44.1561513,29.4194972 C43.6686149,29.1649797 39.7218467,26.9333407 39.1755025,26.6262597 L39.1755025,26.6262597 Z M21.8025137,17.5143484 C21.7143019,17.6305412 21.6545455,17.7937644 21.6545455,18.0021737 L21.6545455,29.9644967 L21.6545455,42.1564387 C21.6545455,42.2855418 21.6830009,42.3962016 21.7285296,42.4847294 L21.7437058,42.4718191 L21.7579335,42.4718191 L21.9201295,42.2993742 L34.7108454,29.9506642 L34.6074574,29.849226 L34.5932296,29.849226 L34.5486495,29.8215611 L21.9931651,17.6867933 L21.8613216,17.5576902 L21.8015652,17.5143484 L21.8025137,17.5143484 Z M22.6865291,17.4 L22.9369369,17.6296191 L22.9663408,17.6591283 L22.9805685,17.6591283 L35.211661,29.4775936 L36.5082801,28.2308267 L38.3796989,26.4252278 L38.5418949,26.2822922 L33.3838739,23.3747063 L22.8193211,17.4433417 C22.8050934,17.4350423 22.7889686,17.4359644 22.7747409,17.4295093 C22.745337,17.4138325 22.7149845,17.4129103 22.6865291,17.4 L22.6865291,17.4 Z" id="Shape"></path>
                        </g>
                    </g>
                </g>
            </g>
        </g>
    </g>
</svg>