<?xml version="1.0" encoding="UTF-8" standalone="no"?>
<svg width="138px" height="40px" viewBox="0 0 138 40" version="1.1" xmlns="http://www.w3.org/2000/svg" xmlns:xlink="http://www.w3.org/1999/xlink" xmlns:sketch="http://www.bohemiancoding.com/sketch/ns">
    <!-- Generator: Sketch 3.3.3 (12081) - http://www.bohemiancoding.com/sketch -->
    <title>Newsweek Logo</title>
    <desc>Created with Sketch.</desc>
    <defs></defs>
    <g id="Desktop" stroke="none" stroke-width="1" fill="none" fill-rule="evenodd" sketch:type="MSPage">
        <g id="Desktop-Footer" sketch:type="MSArtboardGroup" transform="translate(-78.000000, -75.000000)">
            <g sketch:type="MSLayerGroup" id="Newsweek-Logo">
                <g transform="translate(78.000000, 75.000000)" sketch:type="MSShapeGroup">
                    <rect id="Rectangle-7" fill="#FF0500" x="0" y="0" width="137.5" height="40"></rect>
                    <path d="M32.0759421,21.3335792 L36.1168284,21.3335792 C36.1168284,19.5956432 34.9855654,18.9025672 34.1403583,18.9025672 C33.1652379,18.9025672 32.1444474,19.708893 32.0759421,21.3335792 L32.0759421,21.3335792 Z M92.1516867,21.306424 L96.1931902,21.306424 C96.1931902,19.5687966 95.0619272,18.8757205 94.2164114,18.8757205 C93.2412911,18.8757205 92.2208091,19.6811205 92.1516867,21.306424 L92.1516867,21.306424 Z M104.350874,21.2795773 L108.39176,21.2795773 C108.39176,19.5416413 107.260497,18.8482567 106.41529,18.8482567 C105.44017,18.8482567 104.419379,19.6542739 104.350874,21.2795773 L104.350874,21.2795773 Z M126.213936,27.9319964 C126.236463,27.9147158 126.24788,27.8912635 126.24788,27.8637997 C126.24788,27.8357187 126.236771,27.8135007 126.21517,27.7952944 C126.19357,27.7780138 126.157774,27.7690649 126.105932,27.7690649 L126.017061,27.7690649 L126.017061,27.9582259 L126.098526,27.9582259 C126.153145,27.9582259 126.19141,27.9495856 126.213936,27.9319964 L126.213936,27.9319964 Z M126.236463,28.0646868 C126.266087,28.0751786 126.287379,28.0881391 126.300956,28.1001738 C126.320706,28.1171458 126.340455,28.1439925 126.361439,28.1773194 C126.362673,28.179788 126.404331,28.2538478 126.484871,28.3991901 L126.260532,28.3991901 C126.188324,28.252922 126.139259,28.1662104 126.114573,28.1375122 C126.089577,28.1097398 126.064582,28.095545 126.040513,28.095545 C126.034033,28.095545 126.026627,28.0958536 126.017061,28.0983223 L126.017061,28.3991901 L125.837157,28.3991901 L125.837157,27.6360659 L126.167957,27.6360659 C126.264235,27.6360659 126.322249,27.6555065 126.36545,27.6946965 C126.408652,27.7335779 126.430252,27.7860369 126.430252,27.8508392 C126.430252,27.9017553 126.413589,27.9458826 126.381188,27.983221 C126.347861,28.0202509 126.307437,28.0474062 126.236463,28.0646868 L126.236463,28.0646868 Z M126.539182,28.4244939 C126.651815,28.3124784 126.707977,28.1767022 126.707977,28.0177823 C126.707977,27.8585538 126.651815,27.7230861 126.539182,27.6107621 C126.427475,27.4981295 126.29139,27.441659 126.132779,27.441659 C125.97355,27.441659 125.838391,27.4981295 125.725142,27.6107621 C125.613435,27.7230861 125.557273,27.8585538 125.557273,28.0177823 C125.557273,28.1767022 125.613435,28.3124784 125.725142,28.4244939 C125.838391,28.5365093 125.97355,28.593597 126.132779,28.593597 C126.29139,28.593597 126.427475,28.5365093 126.539182,28.4244939 L126.539182,28.4244939 Z M126.845913,28.0177823 C126.845913,28.1455354 126.81382,28.264031 126.750561,28.3745035 C126.686376,28.484976 126.598738,28.5719962 126.489809,28.6358728 C126.378719,28.6997493 126.259298,28.7312247 126.132162,28.7312247 C126.005026,28.7312247 125.88653,28.6997493 125.776058,28.6358728 C125.665585,28.5719962 125.578874,28.484976 125.514688,28.3745035 C125.451738,28.264031 125.418719,28.1455354 125.418719,28.0177823 C125.418719,27.8903377 125.451738,27.7715335 125.514688,27.6607524 C125.578874,27.5496628 125.665585,27.4632597 125.776058,27.3996917 C125.88653,27.3355066 126.005026,27.3037226 126.132162,27.3037226 C126.259298,27.3037226 126.378719,27.3355066 126.489809,27.3996917 C126.598738,27.4632597 126.686376,27.5496628 126.750561,27.6607524 C126.81382,27.7715335 126.845913,27.8903377 126.845913,28.0177823 L126.845913,28.0177823 Z M125.186357,28.7012923 L121.464236,28.7012923 L117.604796,23.6513415 L116.343311,24.5891234 L116.343311,25.5673295 L117.444025,25.5673295 L117.444025,28.7012923 L111.730622,28.7012923 L111.730622,25.5793643 L112.814055,25.5793643 L112.814055,14.5929056 L111.189368,14.5929056 L111.189368,11.5151049 L116.343311,11.5151049 L116.343311,21.3977644 L118.925529,19.5095487 L117.300534,19.5095487 L117.300534,16.3595397 L124.259375,16.3595397 L124.259375,19.5095487 L123.175943,19.5095487 L120.456406,21.5301462 L123.561979,25.576587 L125.186357,25.576587 L125.186357,28.7012923 L125.186357,28.7012923 Z M111.7658,22.5148326 C111.7658,22.7666358 111.7658,23.018439 111.742965,23.2933859 L104.34316,23.2933859 C104.152456,25.6707046 105.036853,26.3903188 106.40665,26.3903188 C107.550873,26.3903188 108.400401,25.6444751 108.400401,24.4604445 L111.589908,24.4604445 C111.521403,26.5427585 110.415444,28.9459981 106.204529,28.9459981 C101.97047,28.9459981 100.00264,25.9018328 100.00264,22.4923061 C100.00264,19.4481408 102.039283,16.1984597 106.135715,16.1984597 C110.049156,16.1984597 111.7658,18.9220079 111.7658,22.5148326 L111.7658,22.5148326 Z M99.5669214,22.5416793 C99.5669214,22.7937911 99.5669214,23.0452857 99.5440863,23.319924 L92.1445893,23.319924 C91.9538854,25.6975513 92.8382825,26.4171654 94.2077711,26.4171654 C95.3519946,26.4171654 96.2018305,25.671939 96.2018305,24.4872912 L99.3910294,24.4872912 C99.3225241,26.5702223 98.2168735,28.9728448 94.0056496,28.9728448 C89.7718993,28.9728448 87.8034523,25.9289881 87.8034523,22.5191527 C87.8034523,19.4756047 89.8404046,16.225615 93.9371444,16.225615 C97.8505862,16.225615 99.5669214,18.9494717 99.5669214,22.5416793 L99.5669214,22.5416793 Z M88.1478302,19.487948 L87.0640889,19.487948 L84.3201743,28.7253617 L80.6755078,28.7253617 L78.9499151,23.6649191 L77.4242837,28.7253617 L73.7055574,28.7253617 L70.6259052,19.487948 L69.5424724,19.487948 L69.5424724,16.3595397 L75.9847469,16.3595397 L75.9847469,19.487948 L74.3594435,19.487948 L76.0372059,24.4070598 L78.2475815,16.3595397 L80.2286805,16.3595397 L82.9420454,24.4067512 L84.3852852,19.487948 L82.7602904,19.487948 L82.7602904,16.3595397 L88.1478302,16.3595397 L88.1478302,19.487948 L88.1478302,19.487948 Z M62.4308828,19.6163182 C62.4308828,20.0520366 62.774335,20.34951 63.9870638,20.7383238 L65.7268513,21.3104355 C67.3287024,21.8368771 69.2508621,23.0270793 69.2508621,25.2013508 C69.2508621,27.7647447 67.3287024,29 64.971133,29 C63.0949521,29 61.6115966,28.0844361 61.2227828,27.6727872 L61.2178454,28.7253617 L58.0684536,28.7253617 L58.0684536,24.4456326 L61.1493401,24.4456326 C61.2409891,25.8422764 62.4768616,26.5739253 63.6210851,26.5739253 C64.536649,26.5739253 64.971133,26.1854201 64.971133,25.7049573 C64.971133,25.132537 64.6279894,24.8119199 63.0718084,24.3089306 L61.5384625,23.8043984 C59.9822816,23.3014091 58.2199676,22.1571856 58.2199676,20.0745631 C58.2199676,17.5340043 60.4627443,16.2527702 62.3852126,16.2527702 C64.3761862,16.2527702 65.3275456,16.8060585 65.808317,17.3556437 L65.8181916,16.3944096 L68.9731379,16.3944096 L68.9731379,20.2618726 L65.7268513,20.2618726 C65.6808725,19.2089895 64.6508245,18.7473502 63.6210851,18.7473502 C62.8200052,18.7473502 62.4308828,19.1130204 62.4308828,19.6163182 L62.4308828,19.6163182 Z M57.9030534,19.487948 L56.8196207,19.487948 L54.0757061,28.7253617 L50.4310396,28.7253617 L48.7054469,23.6649191 L47.179507,28.7253617 L43.4607806,28.7253617 L40.381437,19.487948 L39.2976957,19.487948 L39.2976957,16.3595397 L45.7399701,16.3595397 L45.7399701,19.487948 L44.1152839,19.487948 L45.7927377,24.4070598 L48.0031134,16.3595397 L49.9839037,16.3595397 L52.6972686,24.4067512 L54.140817,19.487948 L52.5161307,19.487948 L52.5161307,16.3595397 L57.9030534,16.3595397 L57.9030534,19.487948 L57.9030534,19.487948 Z M39.4908683,22.5688345 C39.4908683,22.8209463 39.4908683,23.072441 39.4680332,23.3476964 L32.0685361,23.3476964 C31.8778322,25.7250151 32.7622293,26.4446293 34.131718,26.4446293 C35.27625,26.4446293 36.1257773,25.6984771 36.1257773,24.5144464 L39.3149763,24.5144464 C39.246471,26.597069 38.1405117,29 33.9295965,29 C29.6958462,29 27.7277077,25.9561433 27.7277077,22.5466166 C27.7277077,19.5024513 29.7643515,16.2527702 33.8607826,16.2527702 C37.7742244,16.2527702 39.4908683,18.9763184 39.4908683,22.5688345 Z M28.8084343,14.6078453 L27.1868422,14.6078453 L27.1868422,28.5584343 L24.1958578,28.5584343 L16.8876077,19.053829 L16.8876077,25.4505889 L18.5091998,25.4505889 L18.5091998,28.5584343 L11.75,28.5584343 L11.75,25.4505889 L13.3712841,25.4505889 L13.3712841,14.6078453 L11.75,14.6078453 L11.75,11.5 L16.8811411,11.5 L23.6708265,20.3467 L23.6708265,14.6078453 L22.0489265,14.6078453 L22.0489265,11.5 L28.8084343,11.5 L28.8084343,14.6078453 Z" id="Logo-Copy" fill="#FFFFFF"></path>
                </g>
            </g>
        </g>
    </g>
</svg>