<?xml version="1.0" encoding="UTF-8" standalone="no"?>
<svg width="231px" height="36px" viewBox="0 0 231 36" version="1.1" xmlns="http://www.w3.org/2000/svg" xmlns:xlink="http://www.w3.org/1999/xlink" xmlns:sketch="http://www.bohemiancoding.com/sketch/ns">
    <!-- Generator: Sketch 3.4.1 (15681) - http://www.bohemiancoding.com/sketch -->
    <title>Logo Copy 2</title>
    <desc>Created with Sketch.</desc>
    <defs></defs>
    <g id="About-Us" stroke="none" stroke-width="1" fill="none" fill-rule="evenodd" sketch:type="MSPage">
        <g id="Desktop-About-Us" sketch:type="MSArtboardGroup" transform="translate(-715.000000, -700.000000)" fill="#FF0523">
            <g id="Body" sketch:type="MSLayerGroup" transform="translate(369.000000, 327.000000)">
                <g id="Masthead" transform="translate(30.000000, 373.000000)" sketch:type="MSShapeGroup">
                    <path d="M357.151884,20.1434768 L365.233657,20.1434768 C365.233657,16.6676048 362.971131,15.2814527 361.280717,15.2814527 C359.330476,15.2814527 357.288895,16.8941043 357.151884,20.1434768 L357.151884,20.1434768 Z M477.303373,20.0891663 L485.38638,20.0891663 C485.38638,16.6139115 483.123854,15.2277594 481.432823,15.2277594 C479.482582,15.2277594 477.441618,16.8385594 477.303373,20.0891663 L477.303373,20.0891663 Z M501.701748,20.035473 L509.783521,20.035473 C509.783521,16.559601 507.520995,15.1728317 505.830581,15.1728317 C503.88034,15.1728317 501.838759,16.7848661 501.701748,20.035473 L501.701748,20.035473 Z M545.427872,33.3403111 C545.472925,33.3057499 545.49576,33.2588453 545.49576,33.2039177 C545.49576,33.1477557 545.473542,33.1033198 545.430341,33.0669071 C545.387139,33.0323459 545.315548,33.0144481 545.211865,33.0144481 L545.034121,33.0144481 L545.034121,33.3927701 L545.197053,33.3927701 C545.306291,33.3927701 545.382819,33.3754895 545.427872,33.3403111 L545.427872,33.3403111 Z M545.472925,33.6056919 C545.532173,33.6266755 545.574757,33.6525965 545.601913,33.6766659 C545.641411,33.7106099 545.68091,33.7643033 545.722877,33.8309571 C545.725346,33.8358944 545.808663,33.9840139 545.969743,34.2746986 L545.521064,34.2746986 C545.376648,33.9821624 545.278518,33.8087391 545.229145,33.7513428 C545.179155,33.695798 545.129165,33.6674084 545.081026,33.6674084 C545.068065,33.6674084 545.053253,33.6680256 545.034121,33.6729629 L545.034121,34.2746986 L544.674314,34.2746986 L544.674314,32.7484501 L545.335915,32.7484501 C545.52847,32.7484501 545.644497,32.7873315 545.7309,32.8657114 C545.817303,32.9434741 545.860505,33.0483922 545.860505,33.1779968 C545.860505,33.2798289 545.827178,33.3680835 545.762376,33.4427604 C545.695722,33.5168202 545.614873,33.5711307 545.472925,33.6056919 L545.472925,33.6056919 Z M546.078364,34.3253061 C546.303629,34.1012752 546.415953,33.8297228 546.415953,33.5118829 C546.415953,33.1934259 546.303629,32.9224905 546.078364,32.6978426 C545.85495,32.4725774 545.582781,32.3596363 545.265558,32.3596363 C544.947101,32.3596363 544.676783,32.4725774 544.450283,32.6978426 C544.22687,32.9224905 544.114546,33.1934259 544.114546,33.5118829 C544.114546,33.8297228 544.22687,34.1012752 544.450283,34.3253061 C544.676783,34.5493369 544.947101,34.6635124 545.265558,34.6635124 C545.582781,34.6635124 545.85495,34.5493369 546.078364,34.3253061 L546.078364,34.3253061 Z M546.691826,33.5118829 C546.691826,33.7673891 546.627641,34.0043804 546.501122,34.2253254 C546.372752,34.4462704 546.197477,34.6203108 545.979618,34.7480639 C545.757438,34.875817 545.518595,34.9387678 545.264324,34.9387678 C545.010052,34.9387678 544.77306,34.875817 544.552115,34.7480639 C544.33117,34.6203108 544.157747,34.4462704 544.029377,34.2253254 C543.903475,34.0043804 543.837439,33.7673891 543.837439,33.5118829 C543.837439,33.2569938 543.903475,33.0193854 544.029377,32.7978233 C544.157747,32.5756439 544.33117,32.4028378 544.552115,32.2757019 C544.77306,32.1473316 545.010052,32.0837636 545.264324,32.0837636 C545.518595,32.0837636 545.757438,32.1473316 545.979618,32.2757019 C546.197477,32.4028378 546.372752,32.5756439 546.501122,32.7978233 C546.627641,33.0193854 546.691826,33.2569938 546.691826,33.5118829 L546.691826,33.5118829 Z M543.372714,34.8789029 L535.928472,34.8789029 L528.209592,24.7790014 L525.686623,26.6545651 L525.686623,28.6109774 L527.888049,28.6109774 L527.888049,34.8789029 L516.461244,34.8789029 L516.461244,28.6350469 L518.628109,28.6350469 L518.628109,6.66212953 L515.378737,6.66212953 L515.378737,0.506528101 L525.686623,0.506528101 L525.686623,20.2718471 L530.851058,16.4954158 L527.601068,16.4954158 L527.601068,10.1953978 L541.518751,10.1953978 L541.518751,16.4954158 L539.351885,16.4954158 L533.912812,20.5366107 L540.123958,28.6294924 L543.372714,28.6294924 L543.372714,34.8789029 L543.372714,34.8789029 Z M516.531601,22.5059835 C516.531601,23.00959 516.531601,23.5131964 516.48593,24.0630902 L501.686319,24.0630902 C501.304911,28.8177276 503.073706,30.2569559 505.8133,30.2569559 C508.101747,30.2569559 509.800802,28.7652686 509.800802,26.3972074 L516.179817,26.3972074 C516.042806,30.5618353 513.830887,35.3683145 505.409057,35.3683145 C496.940939,35.3683145 493.005279,29.2799841 493.005279,22.4609305 C493.005279,16.3726 497.078567,9.87323783 505.271429,9.87323783 C513.098313,9.87323783 516.531601,15.3203341 516.531601,22.5059835 L516.531601,22.5059835 Z M492.133843,22.5596769 C492.133843,23.0639005 492.133843,23.5668898 492.088173,24.1161664 L477.289179,24.1161664 C476.907771,28.871421 478.676565,30.3106492 481.415542,30.3106492 C483.703989,30.3106492 485.403661,28.8201963 485.403661,26.4509007 L491.782059,26.4509007 C491.645048,30.616763 489.433747,35.4220079 481.011299,35.4220079 C472.543799,35.4220079 468.606905,29.3342946 468.606905,22.5146238 C468.606905,16.4275277 472.680809,9.92754833 480.874289,9.92754833 C488.701172,9.92754833 492.133843,15.3752618 492.133843,22.5596769 L492.133843,22.5596769 Z M469.29566,16.4522143 L467.128178,16.4522143 L461.640349,34.9270417 L454.351016,34.9270417 L450.89983,24.8061566 L447.848567,34.9270417 L440.411115,34.9270417 L434.25181,16.4522143 L432.084945,16.4522143 L432.084945,10.1953978 L444.969494,10.1953978 L444.969494,16.4522143 L441.718887,16.4522143 L445.074412,26.2904379 L449.495163,10.1953978 L453.457361,10.1953978 L458.884091,26.2898207 L461.77057,16.4522143 L458.520581,16.4522143 L458.520581,10.1953978 L469.29566,10.1953978 L469.29566,16.4522143 L469.29566,16.4522143 Z M417.861766,16.7089548 C417.861766,17.5803915 418.54867,18.1753383 420.974128,18.9529659 L424.453703,20.0971894 C427.657405,21.1500725 431.501724,23.5304771 431.501724,27.87902 C431.501724,33.0058078 427.657405,35.4763184 422.942266,35.4763184 C419.189904,35.4763184 416.223193,33.6451905 415.445566,32.8218927 L415.435691,34.9270417 L409.136907,34.9270417 L409.136907,26.3675835 L415.29868,26.3675835 C415.481978,29.1608713 417.953723,30.6241689 420.24217,30.6241689 C422.073298,30.6241689 422.942266,29.8471585 422.942266,28.8862329 C422.942266,27.7413923 422.255979,27.1001581 419.143617,26.0941795 L416.076925,25.0851151 C412.964563,24.0791365 409.439935,21.7906896 409.439935,17.6254445 C409.439935,12.544327 413.925489,9.98185883 417.770425,9.98185883 C421.752372,9.98185883 423.655091,11.0884353 424.616634,12.1876057 L424.636383,10.2651375 L430.946276,10.2651375 L430.946276,18.0000635 L424.453703,18.0000635 C424.361745,15.8942973 422.301649,14.9710188 420.24217,14.9710188 C418.64001,14.9710188 417.861766,15.7023591 417.861766,16.7089548 L417.861766,16.7089548 Z M408.806107,16.4522143 L406.639241,16.4522143 L401.151412,34.9270417 L393.862079,34.9270417 L390.410894,24.8061566 L387.359014,34.9270417 L379.921561,34.9270417 L373.762874,16.4522143 L371.595391,16.4522143 L371.595391,10.1953978 L384.47994,10.1953978 L384.47994,16.4522143 L381.230568,16.4522143 L384.585475,26.2904379 L389.006227,10.1953978 L392.967807,10.1953978 L398.394537,26.2898207 L401.281634,16.4522143 L398.032261,16.4522143 L398.032261,10.1953978 L408.806107,10.1953978 L408.806107,16.4522143 L408.806107,16.4522143 Z M371.981737,22.6139874 C371.981737,23.118211 371.981737,23.6212003 371.936066,24.1717112 L357.137072,24.1717112 C356.755664,28.9263486 358.524459,30.3655769 361.263436,30.3655769 C363.5525,30.3655769 365.251555,28.8732725 365.251555,26.5052112 L371.629953,26.5052112 C371.492942,30.6704563 369.281023,35.4763184 360.859193,35.4763184 C352.391692,35.4763184 348.455415,29.3886051 348.455415,22.5695515 C348.455415,16.481221 352.528703,9.98185883 360.721565,9.98185883 C368.548449,9.98185883 371.981737,15.4289551 371.981737,22.6139874 Z M350.616869,6.69200905 L347.373684,6.69200905 L347.373684,34.5931869 L341.391716,34.5931869 L326.775215,15.5839764 L326.775215,28.3774962 L330.0184,28.3774962 L330.0184,34.5931869 L316.5,34.5931869 L316.5,28.3774962 L319.742568,28.3774962 L319.742568,6.69200905 L316.5,6.69200905 L316.5,0.476318359 L326.762282,0.476318359 L340.341653,18.1697184 L340.341653,6.69200905 L337.097853,6.69200905 L337.097853,0.476318359 L350.616869,0.476318359 L350.616869,6.69200905 Z" id="Logo-Copy-2"></path>
                </g>
            </g>
        </g>
    </g>
</svg>