<?xml version="1.0" encoding="UTF-8" standalone="no"?>
<svg width="113px" height="33px" viewBox="0 0 113 33" version="1.1" xmlns="http://www.w3.org/2000/svg" xmlns:xlink="http://www.w3.org/1999/xlink" xmlns:sketch="http://www.bohemiancoding.com/sketch/ns">
    <!-- Generator: Sketch 3.4.1 (15681) - http://www.bohemiancoding.com/sketch -->
    <title>Devices</title>
    <desc>Created with Sketch.</desc>
    <defs></defs>
    <g id="Newsweek-Premier-Trial" stroke="none" stroke-width="1" fill="none" fill-rule="evenodd" sketch:type="MSPage">
        <g id="Desktop-Premier-v4" sketch:type="MSArtboardGroup" transform="translate(-182.000000, -837.000000)" fill="#CCCCCC">
            <g id="Body" sketch:type="MSLayerGroup" transform="translate(151.000000, 131.000000)">
                <g id="Options" transform="translate(30.000000, 574.000000)" sketch:type="MSShapeGroup">
                    <g id="Devices" transform="translate(1.000000, 132.000000)">
                        <path d="M43.2631579,22 L71.8882561,22 L71.8882561,4 L43.2631579,4 L43.2631579,22 Z M40,2.59329362 C40,1.71334185 40.7326737,1 41.6332102,1 L73.4457372,1 C74.3477343,1 75.0789474,1.71827233 75.0789474,2.59329362 L75.0789474,23.4067064 C75.0789474,24.2866581 74.3462737,25 73.4457372,25 L41.6332102,25 C40.7312131,25 40,24.2817277 40,23.4067064 L40,2.59329362 Z M53.0526316,25.4736842 L62.8421053,25.4736842 L62.8421053,30.3684211 L53.0526316,30.3684211 L53.0526316,25.4736842 Z M49.7894737,32 L66.1052632,32 C66.5558112,32 66.9210526,31.6347586 66.9210526,31.1842105 C66.9210526,30.7336624 66.5558112,30.3684211 66.1052632,30.3684211 L49.7894737,30.3684211 C49.3389256,30.3684211 48.9736842,30.7336624 48.9736842,31.1842105 C48.9736842,31.6347586 49.3389256,32 49.7894737,32 Z" id="Screen"></path>
                        <path d="M93.9333333,3.67354936 L93.9333333,3.67354936 L93.9333333,29.3264506 C93.9333333,29.7402798 94.259903,30.0666667 94.6699194,30.0666667 L109.330081,30.0666667 C109.740204,30.0666667 110.066667,29.7394209 110.066667,29.3264506 L110.066667,3.67354936 C110.066667,3.2597202 109.740097,2.93333333 109.330081,2.93333333 L94.6699194,2.93333333 C94.2597957,2.93333333 93.9333333,3.26057909 93.9333333,3.67354936 L93.9333333,3.67354936 Z M91,3.67354936 C91,1.64470407 92.6356022,0 94.6699194,0 L109.330081,0 C111.356921,0 113,1.63647513 113,3.67354936 L113,29.3264506 C113,31.3552959 111.364398,33 109.330081,33 L94.6699194,33 C92.6430789,33 91,31.3635249 91,29.3264506 L91,3.67354936 Z M101.633333,27.8666667 C102.645855,27.8666667 103.466667,27.0458554 103.466667,26.0333333 C103.466667,25.0208113 102.645855,24.2 101.633333,24.2 C100.620811,24.2 99.8,25.0208113 99.8,26.0333333 C99.8,27.0458554 100.620811,27.8666667 101.633333,27.8666667 Z" id="Smartphone"></path>
                        <path d="M17.7000279,0 C18.2554614,0 19.0208536,0.31770846 19.4150162,0.715103203 L24.1796018,5.51875851 C24.5713303,5.91369911 24.8888889,6.68108129 24.8888889,7.22813699 L24.8888889,29.9996146 C24.8888889,31.1043969 24.0030802,32 22.8941989,32 L1.99468999,32 C0.89305313,32 0,31.1107383 0,29.9982567 L0,2.00174332 C0,0.89621101 0.902216199,0 2.00184069,0 L17.7000279,0 Z M14.9333333,2.84444444 L14.9333333,7.77902088 C14.9333333,8.88807141 15.8248996,9.7871345 16.9260588,9.7871345 L22.0871094,9.7871345 L22.0444444,29.1555556 L2.84444444,29.1555556 L2.84444444,2.84444444 L14.9333333,2.84444444 Z M17.7777778,2.84444444 L22.0444444,7.11111111 L17.7777778,7.11111111 L17.7777778,2.84444444 Z" id="Page"></path>
                    </g>
                </g>
            </g>
        </g>
    </g>
</svg>