<?xml version="1.0" encoding="utf-8"?>
<!-- Generator: Adobe Illustrator 17.1.0, SVG Export Plug-In . SVG Version: 6.00 Build 0)  -->
<!DOCTYPE svg PUBLIC "-//W3C//DTD SVG 1.1//EN" "http://www.w3.org/Graphics/SVG/1.1/DTD/svg11.dtd">
<svg version="1.1" id="Layer_1" xmlns:sketch="http://www.bohemiancoding.com/sketch/ns"
	 xmlns="http://www.w3.org/2000/svg" xmlns:xlink="http://www.w3.org/1999/xlink" x="0px" y="0px" viewBox="0 0 18 19"
	 enable-background="new 0 0 18 19" xml:space="preserve">
<title>Shape</title>
<desc>Created with Sketch.</desc>
<g id="IBT-Category" sketch:type="MSPage">
	<g id="Desktop" transform="translate(-1711.000000, -806.000000)" sketch:type="MSArtboardGroup">
		<g id="Group" transform="translate(1641.000000, 100.000000)" sketch:type="MSLayerGroup">
			<g id="Utility-Bar" transform="translate(0.000000, 107.000000)" sketch:type="MSShapeGroup">
				<g transform="translate(48.000000, 399.000000)">
					<g id="Share-_x5B_on-click_x5D_" transform="translate(1.000000, 0.000000)">
						<g id="linkedin-copy" transform="translate(5.000000, 186.000000)">
							<path id="Shape" fill="#231F20" d="M16.6,20.6H20v12h-3.5V20.6z M18.2,19.1L18.2,19.1c-1.3,0-2.1-0.9-2.1-2.1
								c0-1.2,0.8-2.1,2.1-2.1c1.3,0,2.1,0.9,2.1,2.1C20.3,18.1,19.5,19.1,18.2,19.1L18.2,19.1z M33.9,32.6h-3.9v-6.2
								c0-1.6-0.6-2.7-2-2.7c-1,0-1.6,0.8-1.9,1.5c-0.1,0.3-0.1,0.6-0.1,1v6.5h-3.9c0,0,0.1-11,0-12H26v1.9c0.2-0.8,1.5-2,3.4-2
								c2.5,0,4.4,1.7,4.4,5.5V32.6L33.9,32.6z"/>
						</g>
					</g>
				</g>
			</g>
		</g>
	</g>
</g>
</svg>
