<?xml version="1.0" encoding="utf-8"?>
<!-- Generator: Adobe Illustrator 17.1.0, SVG Export Plug-In . SVG Version: 6.00 Build 0)  -->
<!DOCTYPE svg PUBLIC "-//W3C//DTD SVG 1.1//EN" "http://www.w3.org/Graphics/SVG/1.1/DTD/svg11.dtd">
<svg version="1.1" id="Layer_1" xmlns:sketch="http://www.bohemiancoding.com/sketch/ns"
	 xmlns="http://www.w3.org/2000/svg" xmlns:xlink="http://www.w3.org/1999/xlink" x="0px" y="0px" viewBox="0 0 20 18"
	 enable-background="new 0 0 20 18" xml:space="preserve">
<title>Shape</title>
<desc>Created with Sketch.</desc>
<g id="IBT-Category" sketch:type="MSPage">
	<g id="Desktop" transform="translate(-1711.000000, -687.000000)" sketch:type="MSArtboardGroup">
		<g id="Group" transform="translate(1641.000000, 100.000000)" sketch:type="MSLayerGroup">
			<g id="Utility-Bar" transform="translate(0.000000, 107.000000)" sketch:type="MSShapeGroup">
				<g transform="translate(48.000000, 399.000000)">
					<g id="Share-_x5B_on-click_x5D_" transform="translate(1.000000, 0.000000)">
						<g id="twitter" transform="translate(2.000000, 63.000000)">
							<path id="Shape" fill="#231F20" d="M36.6,21.6c0.8-0.5,1.5-1.4,1.8-2.4c-0.8,0.5-1.7,0.8-2.6,1c-0.7-0.8-1.8-1.4-3-1.4
								c-2.2,0-4.1,1.9-4.1,4.3c0,0.3,0,0.7,0.1,1c-3.4-0.2-6.4-1.9-8.4-4.5C20.2,20.3,20,21,20,21.8c0,1.5,0.7,2.8,1.8,3.6
								c-0.7,0-1.3-0.2-1.8-0.5v0.1c0,2.1,1.4,3.8,3.3,4.2c-0.3,0.1-0.7,0.2-1.1,0.2c-0.3,0-0.5,0-0.8-0.1c0.5,1.7,2,2.9,3.8,3
								C23.8,33.3,22,34,20.1,34c-0.3,0-0.7,0-1-0.1c1.8,1.2,3.9,1.9,6.2,1.9c7.5,0,11.6-6.5,11.6-12.2c0-0.2,0-0.4,0-0.6
								c0.8-0.6,1.5-1.4,2-2.2C38.2,21.2,37.4,21.5,36.6,21.6z"/>
						</g>
					</g>
				</g>
			</g>
		</g>
	</g>
</g>
</svg>
