<?xml version="1.0" encoding="utf-8"?>
<!-- Generator: Adobe Illustrator 17.1.0, SVG Export Plug-In . SVG Version: 6.00 Build 0)  -->
<!DOCTYPE svg PUBLIC "-//W3C//DTD SVG 1.1//EN" "http://www.w3.org/Graphics/SVG/1.1/DTD/svg11.dtd">
<svg version="1.1" id="Layer_1" xmlns:sketch="http://www.bohemiancoding.com/sketch/ns"
	 xmlns="http://www.w3.org/2000/svg" xmlns:xlink="http://www.w3.org/1999/xlink" x="0px" y="0px" viewBox="0 0 26 16"
	 enable-background="new 0 0 26 16" xml:space="preserve">
<title>googleplus copy</title>
<desc>Created with Sketch.</desc>
<g id="IBT-Category" sketch:type="MSPage">
	<g id="Desktop" transform="translate(-1710.000000, -870.000000)" sketch:type="MSArtboardGroup">
		<g id="Group" transform="translate(1641.000000, 100.000000)" sketch:type="MSLayerGroup">
			<g id="Utility-Bar" transform="translate(0.000000, 107.000000)" sketch:type="MSShapeGroup">
				<g transform="translate(48.000000, 399.000000)">
					<g id="Share-_x5B_on-click_x5D_" transform="translate(1.000000, 0.000000)">
						<g id="googleplus-copy" transform="translate(4.000000, 246.000000)">
							<path id="Fill-1" fill="#231F20" d="M38.4,24.6v-2.8h-2v2.8h-2.9v2h2.9v2.9h2v-2.9h2.8v-2H38.4L38.4,24.6z M24,24.4v3.2
								c0,0,3.1,0,4.3,0c-0.7,2.1-1.7,3.2-4.3,3.2c-2.6,0-4.7-2.1-4.7-4.8s2-4.8,4.7-4.8c1.4,0,2.3,0.5,3.1,1.2
								c0.7-0.7,0.6-0.8,2.3-2.3C28,18.8,26.1,18,24,18c-4.4,0-8,3.6-8,8c0,4.4,3.6,8,8,8c6.6,0,8.2-5.8,7.7-9.6H24L24,24.4z"/>
						</g>
					</g>
				</g>
			</g>
		</g>
	</g>
</g>
</svg>
