<?xml version="1.0" encoding="utf-8"?>
<!-- Generator: Adobe Illustrator 17.1.0, SVG Export Plug-In . SVG Version: 6.00 Build 0)  -->
<!DOCTYPE svg PUBLIC "-//W3C//DTD SVG 1.1//EN" "http://www.w3.org/Graphics/SVG/1.1/DTD/svg11.dtd">
<svg version="1.1" id="Layer_1" xmlns:sketch="http://www.bohemiancoding.com/sketch/ns"
	 xmlns="http://www.w3.org/2000/svg" xmlns:xlink="http://www.w3.org/1999/xlink" x="0px" y="0px" viewBox="0 0 13 20"
	 enable-background="new 0 0 13 20" xml:space="preserve">
<title>Shape</title>
<desc>Created with Sketch.</desc>
<g id="IBT-Category" sketch:type="MSPage">
	<g id="Desktop" transform="translate(-1713.000000, -742.000000)" sketch:type="MSArtboardGroup">
		<g id="Group" transform="translate(1641.000000, 100.000000)" sketch:type="MSLayerGroup">
			<g id="Utility-Bar" transform="translate(0.000000, 107.000000)" sketch:type="MSShapeGroup">
				<g transform="translate(48.000000, 399.000000)">
					<g id="Share-_x5B_on-click_x5D_" transform="translate(1.000000, 0.000000)">
						<g id="tumblr" transform="translate(6.000000, 122.000000)">
							<path id="Shape" fill="#231F20" d="M24.6,14.7v4.7h4.6v2.9h-4.6V27c0,1.1,0.1,1.8,0.2,2.1c0.1,0.3,0.3,0.5,0.7,0.7
								c0.4,0.2,0.9,0.4,1.5,0.4c1,0,1.9-0.3,2.9-0.9v2.9c-0.8,0.4-1.6,0.6-2.2,0.8c-0.7,0.2-1.4,0.2-2.2,0.2
								c-0.9,0-1.7-0.1-2.3-0.3c-0.7-0.2-1.3-0.5-1.7-0.9c-0.5-0.4-0.8-0.8-1-1.3c-0.2-0.4-0.3-1.1-0.3-1.9v-6.5h-2.1v-2.6
								c0.8-0.2,1.4-0.6,1.9-1c0.5-0.4,1-1,1.3-1.6c0.3-0.6,0.6-1.4,0.7-2.4H24.6"/>
						</g>
					</g>
				</g>
			</g>
		</g>
	</g>
</g>
</svg>
