<?xml version="1.0" encoding="utf-8"?>
<!-- Generator: Adobe Illustrator 17.1.0, SVG Export Plug-In . SVG Version: 6.00 Build 0)  -->
<!DOCTYPE svg PUBLIC "-//W3C//DTD SVG 1.1//EN" "http://www.w3.org/Graphics/SVG/1.1/DTD/svg11.dtd">
<svg version="1.1" id="Layer_1" xmlns:sketch="http://www.bohemiancoding.com/sketch/ns"
	 xmlns="http://www.w3.org/2000/svg" xmlns:xlink="http://www.w3.org/1999/xlink" x="0px" y="0px" viewBox="0 0 22 16"
	 enable-background="new 0 0 22 16" xml:space="preserve">
<title>Shape</title>
<desc>Created with Sketch.</desc>
<g id="IBT-Category" sketch:type="MSPage">
	<g id="Desktop" transform="translate(-1709.000000, -927.000000)" sketch:type="MSArtboardGroup">
		<g id="Group" transform="translate(1641.000000, 100.000000)" sketch:type="MSLayerGroup">
			<g id="Utility-Bar" transform="translate(0.000000, 107.000000)" sketch:type="MSShapeGroup">
				<g transform="translate(48.000000, 399.000000)">
					<path id="Shape" fill="#231F20" d="M22.1,325.9c0.3,0.2,1.1,0.7,2.5,1.6c1.4,0.9,2.5,1.6,3.2,2.1c0.1,0.1,0.3,0.2,0.5,0.3
						c0.3,0.2,0.5,0.3,0.7,0.4c0.2,0.1,0.4,0.2,0.6,0.4c0.2,0.1,0.5,0.2,0.7,0.3c0.2,0.1,0.4,0.1,0.6,0.1h0h0c0.2,0,0.4,0,0.6-0.1
						c0.2-0.1,0.5-0.2,0.7-0.3c0.2-0.1,0.5-0.3,0.6-0.4c0.2-0.1,0.4-0.3,0.7-0.4c0.3-0.2,0.4-0.3,0.5-0.3c0.8-0.5,2.7-1.7,5.7-3.7
						c0.6-0.4,1.1-0.9,1.5-1.4c0.4-0.5,0.6-1.1,0.6-1.7c0-0.5-0.2-0.9-0.6-1.3S40.6,321,40,321H22c-0.6,0-1.1,0.2-1.5,0.6
						c-0.3,0.4-0.5,0.9-0.5,1.5c0,0.5,0.2,1,0.7,1.6S21.6,325.6,22.1,325.9z M40.8,327.1c-2.7,1.7-4.7,3-6.1,3.9
						c-0.5,0.3-0.8,0.6-1.1,0.7c-0.3,0.2-0.7,0.4-1.2,0.5c-0.5,0.2-0.9,0.3-1.4,0.3h0h0c-0.4,0-0.9-0.1-1.4-0.3
						c-0.5-0.2-0.9-0.4-1.2-0.5c-0.3-0.2-0.7-0.4-1.1-0.7c-1.1-0.7-3.1-2.1-6.1-3.9c-0.5-0.3-0.9-0.6-1.2-1v9c0,0.5,0.2,0.9,0.6,1.3
						c0.4,0.4,0.8,0.5,1.4,0.5H40c0.5,0,1-0.2,1.4-0.5c0.4-0.4,0.6-0.8,0.6-1.3v-9C41.6,326.5,41.2,326.9,40.8,327.1z"/>
				</g>
			</g>
		</g>
	</g>
</g>
</svg>
