<?xml version="1.0" encoding="UTF-8" standalone="no"?>
<svg width="19px" height="15px" viewBox="0 0 19 15" version="1.1" xmlns="http://www.w3.org/2000/svg" xmlns:xlink="http://www.w3.org/1999/xlink" xmlns:sketch="http://www.bohemiancoding.com/sketch/ns">
    <!-- Generator: Sketch 3.4.2 (15857) - http://www.bohemiancoding.com/sketch -->
    <title>Twitter</title>
    <desc>Created with Sketch.</desc>
    <defs></defs>
    <g id="Homepage" stroke="none" stroke-width="1" fill="none" fill-rule="evenodd" sketch:type="MSPage">
        <g id="Desktop-Homepage" sketch:type="MSArtboardGroup" transform="translate(-76.000000, -4186.000000)" fill="#20C3F3">
            <g id="Wisdom-Watch" sketch:type="MSLayerGroup" transform="translate(0.000000, 3886.000000)">
                <g id="Text-Block" transform="translate(35.000000, 51.000000)" sketch:type="MSShapeGroup">
                    <path d="M43.4513295,257.889976 C43.6620118,257.928176 43.8790537,257.948125 44.1007571,257.948125 C44.4910912,257.948125 44.8669759,257.886289 45.2191409,257.771883 C43.4927913,257.499266 42.1727836,256.005251 42.1727836,254.203076 C42.1727836,254.175126 42.1731011,254.147249 42.1737327,254.119451 C42.684896,254.409576 43.2737564,254.578762 43.9013687,254.588082 C42.8645117,253.952893 42.1727836,252.809782 42.1727836,251.505185 C42.1727836,250.82784 42.359251,250.194026 42.6836759,249.65223 C44.521962,251.849808 47.2188972,253.305104 50.2589051,253.502786 C50.2032136,253.247231 50.1738738,252.981841 50.1738738,252.7096 C50.1738738,250.660845 51.8355013,249 53.8852228,249 C54.9560768,249 55.9210035,249.453315 56.5984027,250.178429 C57.4389159,250.044973 58.2201058,249.733508 58.9020883,249.283899 C58.6505153,250.14238 58.0779923,250.863809 57.3231755,251.309595 C58.0620368,251.240914 58.7601046,251.040329 59.4015942,250.739251 C58.9420443,251.490985 58.3247405,252.13587 57.59569,252.627921 C57.5962769,252.655077 57.5965719,252.682304 57.5965719,252.7096 C57.5965719,252.781982 57.5950108,253.062568 57.5950108,253.131973 C57.5950108,258.919043 52.9014526,263.61039 47.1116547,263.61039 C45.0055201,263.61039 43.0444467,262.989602 41.4015942,261.921105 C41.6935996,261.954974 41.990626,261.972384 42.2917208,261.972384 C44.0357917,261.972384 45.6433611,261.388228 46.9292719,260.404986 C45.2828737,260.405133 43.9163081,259.348615 43.4513295,257.889976 Z" id="Twitter"></path>
                </g>
            </g>
        </g>
    </g>
</svg>